<svg width="591" height="396" viewBox="0 0 591 396" fill="none" xmlns="http://www.w3.org/2000/svg">
<path d="M242.348 632.426C234.365 632.754 226.608 630.594 220.561 626.361L-96.5851 404.318C-105.714 397.926 -109.726 387.69 -107.004 377.736L-88.1776 308.907C-82.6096 288.55 -53.3492 279.984 -34.9534 293.324L360.626 580.203C382.653 596.177 369.124 627.22 339.606 628.432L242.348 632.426Z" fill="#00455B" fill-opacity="0.9"/>
<path d="M239.344 532.111C231.016 532.656 222.857 530.487 216.557 526.054L-64.0347 328.582C-72.1858 322.846 -76.2933 313.985 -74.995 304.939L-64.4642 231.568C-61.3072 209.572 -30.1661 198.896 -10.613 213.106L353.591 477.786C375.247 493.524 362.505 524.049 333.487 525.948L239.344 532.111Z" fill="#00738F" fill-opacity="0.8"/>
<path d="M267.093 456.624C258.766 457.169 250.606 455 244.307 450.566L-36.2852 253.095C-44.4363 247.359 -48.5438 238.498 -47.2455 229.452L-36.7147 156.081C-33.5577 134.085 -2.41659 123.409 17.1365 137.619L381.341 402.299C402.996 418.037 390.254 448.562 361.236 450.461L267.093 456.624Z" fill="#00AFCD" fill-opacity="0.7"/>
<path d="M374.789 438.336C368.007 438 361.587 435.872 356.439 432.254L-25.802 163.584C-32.8044 158.662 -36.8826 151.39 -37.0099 143.599L-38.3461 61.8084C-38.7335 38.0938 -5.46526 24.4075 15.6327 39.602L509.87 395.546C533.303 412.422 516.637 445.365 485.449 443.819L374.789 438.336Z" fill="#00F7FF" fill-opacity="0.6"/>
</svg>
