<svg width="680" height="899" viewBox="0 0 680 899" fill="none" xmlns="http://www.w3.org/2000/svg">
<path d="M220.136 77.9425C227.347 75.2924 235.343 75.6512 242.426 78.9424L711.729 297.012C722.163 301.861 729.101 312.336 729.589 323.977L735.411 463.005C736.359 485.638 713.683 500.814 693.561 491.012L71.3863 187.96C47.3988 176.276 48.4695 141.035 73.0869 131.988L220.136 77.9425Z" fill="#00455B" fill-opacity="0.9"/>
<path d="M223.08 206.882C230.242 204.339 238.145 204.746 245.144 208.02L698.891 420.232C707.941 424.465 714.439 432.991 716.223 442.972L742.48 589.943C746.804 614.145 722.895 632.754 701.101 622.149L71.8798 315.963C47.7453 304.219 49.0014 268.709 73.8637 259.879L223.08 206.882Z" fill="#00738F" fill-opacity="0.8"/>
<path d="M223.08 331.317C230.242 328.774 238.145 329.182 245.144 332.455L698.891 544.667C707.941 548.9 714.439 557.426 716.223 567.407L742.48 714.378C746.804 738.58 722.895 757.19 701.101 746.584L71.8798 440.398C47.7453 428.654 49.0014 393.144 73.8637 384.314L223.08 331.317Z" fill="#00AFCD" fill-opacity="0.7"/>
<path d="M226.067 459.405C233.227 456.853 241.136 457.264 248.142 460.552L699.446 672.323C708.501 676.571 715.003 685.124 716.784 695.128L742.879 841.675C747.192 865.892 723.327 884.47 701.558 873.842L75.8733 568.365C51.768 556.596 52.9755 521.085 77.7815 512.246L226.067 459.405Z" fill="#00F7FF" fill-opacity="0.6"/>
</svg>
